<svg viewBox="0 0 44 44" fill="none" xmlns="http://www.w3.org/2000/svg">
  <!-- Body - Larger and centered -->
  <ellipse cx="24" cy="24" rx="18" ry="16" fill="url(#fishGradient)" />
  <!-- Spikes - Simplified and larger -->
  <circle cx="8" cy="18" r="3" fill="#67C090" />
  <circle cx="6" cy="26" r="3" fill="#67C090" />
  <circle cx="8" cy="34" r="3" fill="#67C090" />
  <circle cx="40" cy="18" r="3" fill="#67C090" />
  <circle cx="42" cy="26" r="3" fill="#67C090" />
  <circle cx="40" cy="34" r="3" fill="#67C090" />
  <circle cx="16" cy="9" r="2.5" fill="#67C090" />
  <circle cx="24" cy="7" r="2.5" fill="#67C090" />
  <circle cx="32" cy="9" r="2.5" fill="#67C090" />
  <circle cx="16" cy="39" r="2.5" fill="#67C090" />
  <circle cx="24" cy="41" r="2.5" fill="#67C090" />
  <circle cx="32" cy="39" r="2.5" fill="#67C090" />
  <!-- Eyes - Larger for clarity -->
  <circle cx="18" cy="21" r="5" fill="white" />
  <circle cx="30" cy="21" r="5" fill="white" />
  <circle cx="19" cy="22" r="3" fill="#124170" />
  <circle cx="31" cy="22" r="3" fill="#124170" />
  <!-- Mouth -->
  <ellipse cx="24" cy="30" rx="4" ry="2" fill="#26667F" />
  <!-- Tail -->
  <path d="M42 24 L48 18 L48 30 Z" fill="#26667F" />
  <defs>
    <linearGradient id="fishGradient" x1="6" y1="8" x2="42" y2="40">
      <stop offset="0%" stop-color="#67C090" />
      <stop offset="100%" stop-color="#26667F" />
    </linearGradient>
  </defs>
</svg>
